<?xml version="1.0" standalone="no"?>
<!DOCTYPE svg PUBLIC "-//W3C//DTD SVG 20010904//EN"
 "http://www.w3.org/TR/2001/REC-SVG-20010904/DTD/svg10.dtd">
<svg version="1.0" xmlns="http://www.w3.org/2000/svg"
 width="334.000000pt" height="334.000000pt" viewBox="0 0 334.000000 334.000000"
 preserveAspectRatio="xMidYMid meet">
<metadata>
Created by potrace 1.11, written by Peter Selinger 2001-2013
</metadata>
<g transform="translate(0.000000,334.000000) scale(0.100000,-0.100000)"
fill="#000000" stroke="none">
<path d="M2560 3263 c-117 -118 -111 -95 -109 -437 1 -161 -2 -299 -6 -306
-15 -25 -24 15 -30 131 -8 157 -13 196 -32 257 -33 108 -118 158 -286 170
-153 10 -873 5 -893 -6 -26 -15 -74 -13 465 -23 315 -6 396 -36 449 -166 12
-31 17 -55 11 -58 -11 -7 -70 -12 -244 -20 -71 -3 -193 -8 -270 -12 -77 -4
-157 -7 -177 -7 -21 0 -38 -4 -38 -8 0 -5 17 -8 38 -9 20 -1 55 -2 77 -4 166
-10 271 -17 335 -20 219 -11 296 -18 313 -27 38 -20 54 -19 -498 -33 -362 -9
-394 -11 -402 -18 -3 -4 23 -7 58 -8 35 0 71 -2 79 -4 9 -1 90 -6 180 -10 91
-4 188 -8 215 -10 28 -2 111 -7 185 -10 74 -4 149 -8 165 -10 17 -2 39 -4 50
-5 22 -2 -40 -16 -108 -24 -23 -3 -58 -7 -77 -10 -64 -9 -195 -27 -225 -31
-16 -3 -68 -9 -115 -16 -47 -6 -98 -13 -115 -15 -16 -2 -52 -6 -80 -10 -27 -4
-61 -8 -75 -9 -67 -7 -137 -16 -150 -20 -8 -2 -40 -6 -70 -10 -30 -3 -66 -7
-80 -9 -14 -2 -50 -7 -81 -11 -39 -4 -56 -10 -56 -21 0 -17 -82 -15 707 -20
366 -2 671 -6 678 -9 6 -2 12 -11 12 -20 0 -13 -43 -15 -355 -15 l-355 0 0
-25 c0 -31 8 -33 185 -40 76 -3 141 -7 142 -9 2 -2 -52 -12 -119 -24 -211 -36
-208 -35 -208 -56 0 -9 18 -16 57 -21 68 -8 94 -13 99 -18 2 -2 -32 -11 -76
-21 -63 -15 -80 -22 -80 -36 0 -12 11 -20 33 -25 l32 -7 -32 -9 c-23 -7 -33
-16 -33 -29 0 -18 7 -20 83 -21 45 0 96 -2 112 -4 17 -2 71 -6 120 -10 91 -6
116 -9 193 -20 91 -13 164 -36 196 -60 18 -13 18 -15 -4 -50 -21 -33 -22 -42
-15 -163 4 -70 8 -155 10 -189 2 -35 -1 -65 -6 -68 -5 -4 -9 0 -10 7 0 7 -2
21 -4 30 -2 9 -6 63 -9 119 -10 164 -23 193 -98 204 -130 20 -177 26 -203 30
-16 2 -59 8 -95 14 -142 21 -555 -2 -675 -38 -16 -5 -42 -12 -58 -15 -22 -5
-27 -12 -27 -37 l0 -30 83 8 c45 4 134 7 197 7 125 -1 180 -17 201 -55 6 -12
13 -65 15 -118 2 -53 6 -145 8 -206 3 -60 8 -196 12 -300 5 -183 5 -191 -15
-217 -38 -48 -104 -61 -326 -68 -278 -9 -198 -14 365 -25 195 -4 425 -8 510
-10 85 -2 213 -4 284 -4 71 -1 126 -4 123 -7 -7 -7 -21 -8 -457 -19 -273 -7
-320 -8 -620 -20 -85 -3 -211 -8 -280 -10 -69 -3 -170 -7 -225 -10 -55 -3
-161 -7 -235 -10 -74 -3 -169 -8 -210 -10 -41 -2 -93 -4 -114 -4 -28 -1 -37
-4 -30 -11 13 -13 842 -16 1134 -5 102 3 235 8 295 10 145 5 753 17 975 19
155 2 175 4 178 19 2 9 -8 27 -22 40 -24 22 -25 27 -30 202 -7 199 -10 223
-37 276 -32 65 -93 102 -204 125 l-40 9 0 230 0 229 -113 0 -112 0 6 35 c4 20
9 39 13 43 10 11 228 118 240 118 6 0 11 -7 11 -15 0 -8 9 -19 21 -25 27 -15
159 -6 170 12 5 7 9 88 9 179 0 148 -2 168 -18 182 -10 10 -26 17 -35 17 -16
0 -22 29 -20 97 0 8 -42 11 -148 11 -82 -1 -152 2 -155 5 -3 3 -7 135 -9 294
-3 320 -2 325 66 405 24 27 32 47 32 75 0 46 -6 103 -11 103 -2 0 -39 -35 -82
-77z m237 -890 c3 -7 -9 -19 -26 -28 -17 -8 -35 -23 -40 -33 -5 -9 -8 -62 -6
-117 1 -55 0 -106 -3 -114 -5 -13 -139 -81 -159 -81 -9 0 -18 364 -9 378 8 13
239 8 243 -5z m-318 -218 c0 -102 -4 -185 -8 -185 -4 0 -16 6 -27 14 -17 13
-19 28 -21 153 -1 144 11 203 43 203 11 0 14 -35 13 -185z m-664 -772 c0 -233
-7 -388 -18 -399 -11 -11 -25 7 -32 41 -3 17 -8 152 -11 302 l-4 271 32 -2 33
-3 0 -210z m126 208 c8 -2 3 -517 -6 -568 -9 -58 -31 -56 -40 5 -4 26 -9 164
-11 307 l-4 261 28 -2 c15 -1 30 -2 33 -3z m133 -272 c-2 -286 -6 -339 -29
-339 -20 0 -26 67 -31 351 l-5 265 34 0 34 -1 -3 -276z m130 30 c-1 -196 -5
-304 -14 -366 0 -2 -5 -3 -10 -3 -24 0 -32 68 -36 336 l-4 280 33 -1 32 -2 -1
-244z m529 -230 c97 -2 102 -5 113 -73 l5 -36 -201 0 -201 0 7 38 c13 74 23
79 134 75 30 -1 95 -3 143 -4z m107 -245 c6 -6 12 -20 15 -32 4 -20 2 -21
-216 -21 l-220 0 3 22 c2 12 13 26 25 32 29 15 378 14 393 -1z m-146 -134 c-8
-7 -64 -6 -64 2 0 4 15 6 34 5 19 -1 32 -4 30 -7z"/>
<path d="M675 3266 c-9 -67 -1 -91 42 -139 19 -21 39 -50 45 -65 8 -23 13
-610 5 -619 -2 -1 -51 -3 -110 -5 -74 -1 -112 -6 -119 -15 -6 -8 -8 -17 -4
-20 10 -11 286 -11 280 -1 -5 8 -5 337 -1 538 2 95 -9 133 -55 185 -41 46 -43
52 -43 111 0 48 -4 65 -17 73 -15 9 -17 4 -23 -43z"/>
<path d="M515 2333 c-46 -11 -37 -23 18 -23 l57 0 0 -133 c0 -129 -1 -134 -22
-144 -52 -24 -92 19 -103 111 -9 78 -25 60 -26 -32 -1 -89 14 -117 73 -133 66
-17 118 -40 173 -75 49 -32 67 -37 113 -35 42 2 33 10 -141 123 -7 4 -10 62
-8 161 2 123 -1 157 -12 169 -15 14 -84 21 -122 11z"/>
<path d="M974 2287 c-4 -11 1 -362 5 -375 1 -1 9 1 19 6 23 13 180 48 267 61
73 10 155 22 190 26 11 1 25 3 30 4 6 1 3 6 -5 12 -14 9 -219 4 -260 -6 -8 -2
-44 -7 -80 -10 -35 -4 -74 -11 -87 -16 l-23 -9 -1 105 c-1 58 -2 108 -3 113
-1 4 -5 28 -10 55 -7 46 -30 65 -42 34z"/>
<path d="M737 1800 l-37 -5 45 -18 c48 -20 59 -45 51 -117 -2 -19 -5 -88 -5
-153 l-1 -118 -37 3 c-43 4 -47 14 -58 135 -3 43 -10 82 -14 86 -4 4 -8 2 -8
-5 -3 -79 -17 -195 -24 -202 -5 -6 -33 -16 -61 -23 -96 -25 -155 -79 -178
-164 -6 -20 -13 -119 -16 -220 -3 -101 -11 -190 -16 -196 -8 -10 2 -13 45 -13
52 0 80 14 76 36 -1 5 -1 50 0 100 1 89 2 91 24 87 12 -2 101 -4 197 -6 l175
-2 0 -25 0 -25 -182 0 -183 0 0 -27 c0 -32 -21 -29 225 -32 l170 -1 0 -45 0
-45 -192 -3 c-106 -1 -193 -6 -193 -11 0 -5 8 -10 18 -13 29 -6 491 -2 498 5
3 3 8 206 11 450 l5 445 -22 22 c-12 12 -26 18 -30 14 -4 -5 -11 -74 -15 -154
-4 -80 -9 -158 -11 -175 -1 -16 -3 -50 -3 -74 -2 -87 -10 -33 -16 104 -3 77
-8 182 -10 234 -4 89 -14 135 -16 78 -1 -15 -2 -30 -3 -34 -1 -5 -6 -39 -10
-78 -5 -38 -10 -78 -11 -87 -2 -9 -7 -48 -10 -85 -14 -142 -25 -83 -25 135 l0
222 -22 1 c-13 0 -39 1 -58 2 -19 1 -52 0 -73 -3z m53 -472 c66 -20 109 -77
112 -148 1 -22 -1 -42 -3 -44 -2 -2 -84 -6 -183 -8 -161 -4 -180 -6 -192 -23
-13 -17 -14 -15 -14 24 0 75 20 131 64 176 l41 42 70 -4 c39 -2 86 -9 105 -15z
m-270 -282 c0 -3 -4 -8 -10 -11 -5 -3 -10 -1 -10 4 0 6 5 11 10 11 6 0 10 -2
10 -4z"/>
<path d="M1164 1331 c5 -285 11 -351 31 -351 22 0 27 53 30 340 l4 277 -35 0
-35 0 5 -266z"/>
<path d="M1294 1337 c4 -285 11 -357 32 -357 22 0 26 58 28 342 l1 271 -32 3
-33 2 4 -261z"/>
<path d="M1424 1325 c4 -285 10 -345 31 -345 23 0 27 54 30 340 l3 276 -34 0
-33 0 3 -271z"/>
<path d="M1554 1321 c5 -272 11 -331 33 -338 20 -7 26 64 27 341 l1 270 -33 2
-33 2 5 -277z"/>
<path d="M2120 572 l0 -37 -62 5 c-98 8 -110 4 -106 -33 2 -24 8 -32 23 -32
19 0 20 -8 23 -201 l2 -202 34 0 34 0 1 96 c0 324 -2 307 26 310 l25 2 0 -240
0 -240 440 0 440 0 0 305 0 305 -440 0 -440 0 0 -38z m121 -34 c0 -7 1 -96 2
-198 l2 -185 48 -3 c46 -3 47 -4 47 -36 l0 -33 -82 1 -81 1 -1 228 c-1 126 1
231 3 233 10 10 61 3 62 -8z m209 -221 l0 -233 -30 -2 c-23 -2 -30 2 -31 15
-3 59 -4 430 -1 441 2 6 17 12 33 12 l29 0 0 -233z m130 148 c34 -47 62 -85
63 -85 1 0 1 38 0 85 l-3 85 34 0 35 0 0 -236 0 -235 -32 3 -32 3 -2 93 c-1
86 -3 95 -32 134 -17 23 -32 35 -32 27 -1 -7 -2 -68 -3 -134 l-1 -120 -32 -1
-33 -1 0 234 c0 128 2 233 4 233 3 0 32 -38 66 -85z m316 53 c-1 -29 -4 -32
-31 -33 -26 0 -30 -4 -33 -32 l-3 -33 50 0 c50 0 51 -1 51 -30 0 -31 -2 -32
-60 -34 l-35 -1 -3 -102 -3 -103 51 0 c50 0 50 0 50 -33 l0 -33 -80 -2 c-69
-1 -80 1 -81 16 -1 21 -1 434 0 445 1 4 30 7 65 7 l63 0 -1 -32z"/>
<path d="M369 535 c-36 -20 -53 -65 -47 -127 6 -58 40 -98 82 -98 38 0 47 -21
44 -101 -3 -63 -6 -74 -22 -77 -24 -5 -35 8 -38 41 -3 29 -2 29 -38 31 -22 1
-25 -4 -28 -36 -6 -73 85 -130 145 -91 33 22 46 49 50 108 8 112 -24 185 -82
185 -46 0 -68 67 -33 102 25 25 48 9 48 -33 0 -26 3 -29 35 -29 l35 0 -4 42
c-8 78 -81 119 -147 83z"/>
<path d="M550 514 c0 -31 21 -51 41 -38 5 3 9 -80 9 -201 l0 -206 33 3 32 3 2
185 c2 233 1 221 16 219 27 -3 35 2 35 27 0 32 -8 35 -97 37 l-71 2 0 -31z"/>
<path d="M805 540 l-31 -5 1 -230 0 -230 33 -3 c31 -3 32 -2 32 32 0 50 33 51
51 1 11 -30 17 -35 46 -35 18 0 33 2 33 4 0 2 -7 22 -15 46 -13 37 -13 44 0
63 12 17 15 53 15 159 0 129 -1 139 -23 164 -25 29 -87 44 -142 34z m94 -76
c3 -3 6 -55 6 -115 1 -116 -9 -150 -42 -145 -16 3 -18 18 -21 139 l-3 136 28
-5 c15 -3 30 -7 32 -10z"/>
<path d="M1081 536 c-46 -26 -50 -47 -51 -264 l0 -203 33 3 c28 3 32 6 32 33
0 27 3 30 30 30 26 0 30 -4 33 -32 3 -30 6 -32 38 -31 l34 1 -2 209 -3 210
-33 29 c-35 32 -72 37 -111 15z m79 -200 l0 -131 -30 -1 c-21 -1 -30 3 -31 15
-1 9 -2 65 -3 126 -1 94 1 112 17 128 14 14 21 16 33 6 11 -9 14 -41 14 -143z"/>
<path d="M1292 536 c-5 -6 -8 -112 -8 -236 l1 -225 33 -3 32 -3 0 234 0 235
-25 4 c-14 3 -29 0 -33 -6z"/>
<path d="M1453 533 c-39 -35 -43 -57 -43 -232 l0 -171 28 -30 c49 -53 124 -43
158 21 10 19 21 29 30 25 26 -10 16 45 -13 73 -37 35 -75 61 -90 61 -19 0 -16
-57 3 -64 21 -8 15 -66 -9 -80 -35 -21 -43 10 -42 172 1 162 9 191 46 171 12
-6 19 -20 19 -40 0 -28 2 -30 33 -27 30 3 32 5 30 43 -3 75 -97 124 -150 78z"/>
<path d="M1697 541 c-3 -6 -1 -398 2 -448 1 -19 7 -23 31 -23 17 0 30 5 31 13
1 6 2 68 2 137 l2 125 30 0 30 0 3 -137 3 -138 28 0 c36 0 36 -1 35 258 0 216
-3 229 -47 213 -18 -7 -20 -15 -18 -69 l2 -62 -34 0 -35 0 0 48 c1 78 0 79
-32 84 -17 3 -32 2 -33 -1z"/>
</g>
</svg>
